<svg width="22" height="22" viewBox="0 0 22 22" fill="none" xmlns="http://www.w3.org/2000/svg">
<g id="Icon/shopping_cart">
<path id="Vector" d="M15.1675 11.9163C15.855 11.9163 16.46 11.5405 16.7716 10.9722L20.0533 5.02301C20.3925 4.41801 19.9525 3.66634 19.2558 3.66634H5.68912L4.82746 1.83301H1.82996V3.66634H3.66329L6.96329 10.6238L5.72579 12.8605C5.05662 14.0888 5.93662 15.583 7.32996 15.583H18.33V13.7497H7.32996L8.33829 11.9163H15.1675ZM6.55996 5.49967H17.6975L15.1675 10.083H8.73246L6.55996 5.49967ZM7.32996 16.4997C6.32162 16.4997 5.50579 17.3247 5.50579 18.333C5.50579 19.3413 6.32162 20.1663 7.32996 20.1663C8.33829 20.1663 9.16329 19.3413 9.16329 18.333C9.16329 17.3247 8.33829 16.4997 7.32996 16.4997ZM16.4966 16.4997C15.4883 16.4997 14.6725 17.3247 14.6725 18.333C14.6725 19.3413 15.4883 20.1663 16.4966 20.1663C17.505 20.1663 18.33 19.3413 18.33 18.333C18.33 17.3247 17.505 16.4997 16.4966 16.4997Z" fill="#0D6EFD"/>
</g>
</svg>
