<svg width="12" height="15" viewBox="0 0 12 15" fill="none" xmlns="http://www.w3.org/2000/svg">
<g id="Logo">
<path id="Path" d="M10.099 1.05579C9.46156 0.316817 8.30919 0 6.83496 0H2.55634C2.25502 1.13472e-05 1.99842 0.222835 1.9512 0.525501L0.169662 12.0167C0.134251 12.2433 0.306777 12.4485 0.532603 12.4485H3.17407L3.83746 8.16914L3.81687 8.30314C3.86413 8.00065 4.11851 7.77755 4.41973 7.77755H5.67495C8.14082 7.77755 10.0716 6.75893 10.6357 3.81228C10.6524 3.72513 10.6669 3.64031 10.6794 3.55744C10.6083 3.5191 10.6083 3.5191 10.6794 3.55744C10.8474 2.46833 10.6783 1.72698 10.099 1.05579Z" fill="#27346A"/>
<path id="Path_2" d="M4.84818 3.1651C4.9204 3.13013 4.99938 3.11201 5.07936 3.11206H8.43372C8.83093 3.11206 9.20142 3.13835 9.53997 3.19377C9.63471 3.20913 9.72896 3.22747 9.82258 3.24876C9.95527 3.27854 10.0864 3.31499 10.2156 3.35797C10.382 3.4145 10.537 3.48034 10.6795 3.55744C10.8474 2.46791 10.6783 1.72698 10.099 1.05579C9.46119 0.316817 8.30919 0 6.83496 0H2.55598C2.25471 0 1.99841 0.223061 1.9512 0.525501L0.169662 12.0163C0.134251 12.2432 0.306778 12.4481 0.532237 12.4481H3.17407L4.55039 3.57177C4.57786 3.39466 4.68921 3.24261 4.84818 3.1651Z" fill="#27346A"/>
<path id="Path_3" d="M10.6357 3.81246C10.0717 6.75869 8.14088 7.77773 5.67495 7.77773H4.41937C4.11814 7.77773 3.86372 8.00083 3.81692 8.30332L2.99162 13.6242C2.96079 13.8225 3.11158 14.0022 3.30886 14.0022H5.53555C5.79906 14.0021 6.02339 13.8072 6.06457 13.5425L6.08625 13.4271L6.50592 10.722L6.53296 10.5725C6.57414 10.3079 6.79845 10.1129 7.06193 10.1128H7.39518C9.5522 10.1128 11.2412 9.22162 11.7347 6.64409C11.9408 5.56694 11.8342 4.66762 11.2892 4.03594C11.1239 3.84461 10.9186 3.6866 10.6794 3.55762C10.6665 3.6409 10.6525 3.72531 10.6357 3.81246Z" fill="#2790C3"/>
<path id="Path_4" d="M10.0892 3.31838C10.0012 3.29227 9.91244 3.26914 9.82298 3.24906C9.72931 3.22811 9.63507 3.20989 9.54038 3.19443C9.20146 3.13864 8.83124 3.11231 8.43367 3.11231H5.07972C4.99968 3.11212 4.92064 3.1304 4.84854 3.16577C4.68937 3.24304 4.57793 3.3952 4.55071 3.57243L3.83782 8.16943L3.81723 8.30343C3.86412 8.00095 4.1185 7.77784 4.41977 7.77784H5.67535C8.14123 7.77784 10.072 6.75922 10.636 3.81257C10.6528 3.72542 10.6669 3.64097 10.6798 3.55773C10.537 3.48105 10.3824 3.41479 10.2159 3.35863C10.1739 3.34447 10.1317 3.33105 10.0892 3.31838" fill="#1F264F"/>
</g>
</svg>
